<?xml version="1.0" encoding="utf-8"?>
<!-- Generator: Adobe Illustrator 24.0.2, SVG Export Plug-In . SVG Version: 6.00 Build 0)  -->
<svg version="1.1" id="Capa_1" xmlns="http://www.w3.org/2000/svg" xmlns:xlink="http://www.w3.org/1999/xlink" x="0px" y="0px"
	 viewBox="0 0 50 50" style="enable-background:new 0 0 50 50;" xml:space="preserve">
<style type="text/css">
	.st0{fill:#FFFFFF;}
</style>
<g>
	<path class="st0" d="M29.15,5.8c0.94,0,1.88,0.05,2.81,0.09c0.61,0.02,1.22,0.11,1.79,0.17l-0.04,5.64c-0.17,0-0.31,0-0.45,0
		c-0.62,0-1.24-0.01-1.86-0.01c-0.46,0-0.93,0-1.39,0.02c-1.49,0.05-2.59,0.61-2.67,2.48c-0.05,1.34-0.08,4.31-0.08,4.47
		c0.08,0,1.55,0.01,3.04,0.01c0.74,0,1.47,0,1.97-0.01c0.39,0,0.77,0,1.21,0c-0.3,2.16-0.58,4.24-0.88,6.33h-5.34l-0.12,15.81h-6.56
		l0.12-15.84h-5.36l0.05-6.3h5.39l0-0.47c0.01-1.27-0.01-2.54,0.04-3.81c0.02-0.8,0.06-1.62,0.2-2.41c0.36-1.93,1.26-3.55,2.87-4.7
		c1.41-1.01,3.02-1.43,4.73-1.47C28.8,5.81,28.98,5.8,29.15,5.8z"/>
</g>
</svg>
