<?xml version="1.0" encoding="utf-8"?>
<!-- Generator: Adobe Illustrator 24.0.2, SVG Export Plug-In . SVG Version: 6.00 Build 0)  -->
<svg version="1.1" id="Capa_1" xmlns="http://www.w3.org/2000/svg" xmlns:xlink="http://www.w3.org/1999/xlink" x="0px" y="0px"
	 viewBox="0 0 50 50" style="enable-background:new 0 0 50 50;" xml:space="preserve">
<style type="text/css">
	.st0{fill:#FFFFFF;}
</style>
<g>
	<path class="st0" d="M32.86,13.21c0.01,0,0.02,0,0.02,0c1.02,0,1.85,0.83,1.84,1.87c-0.01,1.02-0.85,1.85-1.88,1.85
		c-1.03-0.01-1.85-0.85-1.84-1.87C31.01,14.03,31.84,13.21,32.86,13.21z"/>
</g>
<g>
	<path class="st0" d="M39.84,15.59c0.23,2.44,0.38,13.96-0.34,16.66c-0.96,3.53-3.27,5.62-6.84,6.2c-1.34,0.22-4.94,0.35-8.55,0.35
		c-3.69,0-7.37-0.14-8.61-0.46c-3.51-0.91-5.61-3.2-6.17-6.76c-0.42-2.61-0.46-14.76,0.29-17.39c0.98-3.43,3.28-5.45,6.75-6.02
		c1.58-0.26,4.65-0.35,7.76-0.35c2.89,0,5.81,0.08,7.57,0.17c2.13,0.11,4.07,0.8,5.66,2.31C38.88,11.75,39.65,13.55,39.84,15.59z
		 M36.86,31.07c0.44-2.72,0.44-12.67,0.19-15.22c-0.28-2.72-1.94-4.52-4.64-4.94c-1.33-0.2-4.55-0.29-7.75-0.29
		c-3.09,0-6.16,0.08-7.51,0.23c-2.7,0.31-4.52,1.98-4.95,4.67c-0.44,2.85-0.44,13.5-0.11,15.64c0.34,2.23,1.6,3.76,3.82,4.38
		c1.2,0.34,4.8,0.46,8.33,0.46c3.25,0,6.44-0.1,7.64-0.23C34.63,35.46,36.43,33.79,36.86,31.07"/>
</g>
<g>
	<path class="st0" d="M24.6,15.37c4.38,0,7.91,3.56,7.88,7.95c-0.03,4.38-3.62,7.94-8.01,7.94c-4.39,0-7.91-3.56-7.88-7.95
		C16.63,18.92,20.21,15.36,24.6,15.37z M24.49,28.45c2.82,0,5.13-2.27,5.18-5.09c0.05-2.85-2.21-5.16-5.05-5.19
		c-0.02,0-0.03,0-0.05,0c-2.82,0-5.13,2.27-5.18,5.09c-0.05,2.84,2.21,5.16,5.05,5.19C24.46,28.45,24.47,28.45,24.49,28.45"/>
</g>
</svg>
