<?xml version="1.0" encoding="utf-8"?>
<!-- Generator: Adobe Illustrator 24.0.2, SVG Export Plug-In . SVG Version: 6.00 Build 0)  -->
<svg version="1.1" id="Capa_1" xmlns="http://www.w3.org/2000/svg" xmlns:xlink="http://www.w3.org/1999/xlink" x="0px" y="0px"
	 viewBox="0 0 50 50" style="enable-background:new 0 0 50 50;" xml:space="preserve">
<style type="text/css">
	.st0{fill:#FFFFFF;}
</style>
<g>
	<path class="st0" d="M45.07,11.46c-0.3,0.45-0.59,0.86-0.93,1.26c-0.87,1.08-1.88,2.03-3,2.84L41,15.82
		c0.04,1.21-0.02,2.43-0.18,3.64c-0.33,2.55-1.07,4.99-2.16,7.31c-1.16,2.4-2.63,4.56-4.49,6.47c-3.16,3.24-6.94,5.33-11.34,6.3
		c-1.51,0.32-3.03,0.49-4.58,0.54c-0.25,0.01-0.49,0.01-0.74,0.01c-4.45,0-8.57-1.19-12.37-3.55l-0.2-0.12
		c0.65,0.07,1.29,0.1,1.93,0.1c2.17,0,4.26-0.41,6.3-1.23c1.4-0.58,2.7-1.32,3.92-2.29c-4.26-0.14-6.91-3.21-7.59-5.7
		c0.51,0.1,1.02,0.15,1.53,0.15c0.67,0,1.33-0.08,1.99-0.24l0.12-0.06c-2.32-0.54-4.09-1.77-5.3-3.77C7,22.08,6.63,20.62,6.64,19.04
		c1.16,0.61,2.36,0.95,3.65,0.98c-1.73-1.24-2.88-2.89-3.34-4.98c-0.46-2.09-0.14-4.07,0.94-5.95c4.4,5.24,10,8.11,16.87,8.59
		c-0.04-0.34-0.09-0.61-0.13-0.91c-0.22-1.94,0.2-3.73,1.25-5.36c1.32-2.06,3.19-3.33,5.59-3.72c0.51-0.08,1.01-0.13,1.49-0.13
		c2.15,0,4.05,0.82,5.68,2.42c0.1,0.09,0.19,0.14,0.3,0.14c0.04,0,0.08-0.01,0.13-0.02c1.69-0.35,3.3-0.97,4.79-1.83l0.11-0.06
		c-0.6,1.91-1.79,3.38-3.49,4.47C42.08,12.52,43.59,12.09,45.07,11.46z"/>
</g>
</svg>
