<?xml version="1.0" encoding="utf-8"?>
<!-- Generator: Adobe Illustrator 24.0.2, SVG Export Plug-In . SVG Version: 6.00 Build 0)  -->
<svg version="1.1" id="Capa_1" xmlns="http://www.w3.org/2000/svg" xmlns:xlink="http://www.w3.org/1999/xlink" x="0px" y="0px"
	 viewBox="0 0 50 50" style="enable-background:new 0 0 50 50;" xml:space="preserve">
<style type="text/css">
	.st0{fill:#FFFFFF;}
</style>
<g>
	<path class="st0" d="M32.86,13.21c0.01,0,0.02,0,0.02,0c1.02,0,1.85,0.83,1.84,1.87c-0.01,1.02-0.85,1.85-1.88,1.85
		c-1.03-0.01-1.85-0.85-1.84-1.87C31.01,14.03,31.84,13.21,32.86,13.21z"/>
</g>
<g>
	<path class="st0" d="M24.6,15.37c4.38,0,7.91,3.56,7.88,7.95c-0.03,4.38-3.62,7.94-8.01,7.94c-4.39,0-7.91-3.56-7.88-7.95
		C16.63,18.92,20.21,15.36,24.6,15.37z M24.49,28.45c2.82,0,5.13-2.27,5.18-5.09c0.05-2.85-2.21-5.16-5.05-5.19
		c-0.02,0-0.03,0-0.05,0c-2.82,0-5.13,2.27-5.18,5.09c-0.05,2.84,2.21,5.16,5.05,5.19C24.46,28.45,24.47,28.45,24.49,28.45"/>
</g>
<g>
	<path class="st0" d="M39.83,15c1.15,3.02,1.1,14.03-0.28,16.95c-0.38,0.8-0.98,1.34-1.74,1.75c-1.08,0.56-7.34,0.82-13.48,0.82
		c-5.65,0-11.19-0.22-12.49-0.65c-1.2-0.4-2.02-1.19-2.45-2.39c-1.04-2.92-1.27-15.17,0.81-17.58c0.7-0.82,1.61-1.31,2.69-1.42
		c2.46-0.27,7.21-0.4,11.9-0.4c5.83,0,11.56,0.2,12.65,0.6C38.58,13.1,39.4,13.86,39.83,15z M20.65,28.14
		c3.32-1.73,6.63-3.43,9.98-5.16c-3.32-1.74-6.61-3.46-9.9-5.19C20.71,21.25,20.68,24.67,20.65,28.14"/>
</g>
</svg>
